<?xml version="1.0" standalone="no"?>
<!DOCTYPE svg PUBLIC "-//W3C//DTD SVG 20010904//EN"
 "http://www.w3.org/TR/2001/REC-SVG-20010904/DTD/svg10.dtd">
<svg version="1.0" xmlns="http://www.w3.org/2000/svg"
 width="400.000000pt" height="400.000000pt" viewBox="0 0 400.000000 400.000000"
 preserveAspectRatio="xMidYMid meet">
<metadata>
Created by potrace 1.11, written by Peter Selinger 2001-2013
</metadata>
<g transform="translate(0.000000,400.000000) scale(0.100000,-0.100000)"
fill="#000000" stroke="none">
<path d="M1614 3606 c-18 -8 -251 -180 -519 -382 -478 -360 -488 -369 -513
-423 l-25 -55 66 -585 c37 -322 72 -603 78 -624 19 -70 70 -107 240 -175 85
-34 186 -69 224 -78 128 -29 269 1 336 73 53 57 57 64 74 129 15 57 14 73 -50
644 -36 322 -68 591 -71 599 -3 11 -20 13 -80 8 -42 -4 -80 -9 -85 -13 -15 -9
-13 -34 53 -611 59 -533 61 -554 45 -588 -23 -48 -70 -75 -131 -75 -36 0 -90
16 -215 66 -91 36 -167 67 -169 69 -3 3 -132 1118 -132 1142 0 11 901 699 939
716 12 6 175 -55 548 -203 292 -116 536 -216 541 -223 5 -7 39 -266 75 -577
60 -518 64 -566 50 -582 -15 -17 -11 -18 85 -18 l102 0 0 58 c0 31 -29 306
-64 610 -71 606 -72 610 -143 658 -18 12 -276 119 -573 238 -488 195 -546 216
-598 216 -31 -1 -71 -7 -88 -14z"/>
<path d="M2060 2864 c-79 -10 -209 -48 -262 -76 -73 -39 -122 -86 -154 -151
-24 -45 -26 -60 -22 -131 5 -98 29 -150 87 -190 77 -54 105 -59 391 -66 303
-7 329 -13 350 -74 9 -27 9 -44 0 -71 -26 -79 -127 -125 -318 -146 -145 -16
-212 -3 -264 52 -20 21 -39 52 -43 69 -9 42 -29 49 -104 39 -81 -12 -95 -22
-86 -68 22 -116 99 -203 213 -243 58 -20 85 -23 202 -22 365 3 600 146 600
365 0 128 -51 209 -157 249 -50 20 -89 24 -293 32 -316 12 -338 15 -366 43
-29 29 -31 75 -7 116 25 42 104 77 209 95 110 17 177 17 227 0 51 -18 74 -41
104 -100 l25 -48 70 6 c38 4 76 10 84 13 38 14 -13 159 -77 220 -19 18 -61 44
-93 59 -51 23 -74 27 -170 29 -61 2 -127 1 -146 -1z"/>
<path d="M2711 1947 c-62 -25 -86 -57 -96 -127 -7 -44 -6 -45 12 -24 29 34 57
44 127 44 52 0 66 3 66 15 0 17 16 20 25 5 11 -18 35 2 35 31 0 20 -9 35 -33
53 -41 32 -66 32 -136 3z"/>
<path d="M2420 1826 c-14 -8 -41 -35 -59 -61 -32 -45 -33 -49 -21 -84 19 -54
189 -373 213 -398 47 -52 169 -11 198 66 8 19 -4 53 -66 185 -41 90 -80 188
-86 221 -7 33 -19 66 -27 73 -21 16 -120 15 -152 -2z"/>
<path d="M2675 1809 c-32 -20 -44 -41 -45 -77 0 -76 63 -157 162 -206 75 -38
146 -47 205 -26 l28 10 -27 -23 c-16 -13 -28 -33 -28 -46 0 -20 -2 -21 -15
-11 -12 10 -15 10 -15 0 0 -6 -76 -87 -169 -178 -161 -158 -171 -170 -186
-225 -11 -38 -14 -72 -10 -100 9 -59 50 -146 88 -187 20 -22 14 -18 -16 10
-27 25 -62 72 -79 107 -27 56 -30 69 -26 137 2 42 1 76 -2 76 -3 0 -27 -11
-54 -25 -55 -28 -110 -31 -169 -11 -38 14 -38 14 -60 -20 -31 -47 -53 -42 -27
6 6 10 7 21 2 23 -16 10 -119 -19 -159 -46 -24 -15 -65 -32 -93 -38 -27 -6
-50 -14 -50 -18 0 -47 113 -277 216 -441 63 -101 67 -110 92 -234 l26 -129
332 7 c230 5 347 11 377 20 50 15 140 73 132 85 -2 5 -27 86 -55 181 -73 254
-76 235 72 493 134 234 158 287 158 350 0 63 -49 448 -62 480 -21 54 -51 60
-298 64 -165 3 -230 1 -245 -8z"/>
<path d="M2181 1677 c-42 -23 -101 -88 -101 -113 0 -21 114 -236 172 -326 64
-98 82 -112 136 -102 83 15 143 63 141 114 0 14 -51 120 -113 235 l-113 210
-39 3 c-26 2 -53 -5 -83 -21z"/>
<path d="M2732 1478 c27 -52 50 -84 62 -86 31 -6 105 28 126 58 l21 29 -49 -1
c-54 0 -110 20 -158 57 -18 14 -35 25 -39 25 -3 0 13 -37 37 -82z"/>
<path d="M1992 1489 c-27 -14 -51 -36 -67 -63 -44 -76 -43 -84 25 -175 33 -45
85 -107 115 -138 52 -53 56 -56 95 -50 47 6 83 27 106 62 16 24 14 29 -86 205
-113 199 -111 197 -188 159z"/>
<path d="M1886 1248 c4 -29 12 -56 18 -60 13 -9 66 -11 66 -3 0 8 -81 115 -87
115 -2 0 -1 -24 3 -52z"/>
<path d="M1584 1227 c-34 -23 -70 -47 -80 -53 -13 -8 -16 -15 -9 -22 6 -6 93
-45 195 -88 169 -71 191 -77 255 -78 61 -1 76 3 114 28 35 22 41 30 29 37 -8
5 -34 33 -58 63 -35 46 -45 54 -60 46 -14 -7 -53 5 -164 50 -80 33 -149 60
-153 59 -4 0 -36 -19 -69 -42z"/>
</g>
</svg>
